<?xml version="1.0" encoding="UTF-8"?>
<svg width="16px" height="16px" viewBox="0 0 16 16" version="1.1" xmlns="http://www.w3.org/2000/svg" xmlns:xlink="http://www.w3.org/1999/xlink">
    <title>Artboard</title>
    <g id="Artboard" stroke="none" stroke-width="1" fill="none" fill-rule="evenodd">
        <g id="compile" transform="translate(1.000000, 1.500000)" fill="#E0E0E0">
            <path d="M5.10231158,0.0948726138 L5.11982914,0.0879862606 C5.2387946,0.0412195763 5.36552912,0.0168481425 5.49352425,0.0161235495 L8.33760477,0 C8.50823946,-0.000943048893 8.65129666,0.118103989 8.68514168,0.277246219 L8.69272799,0.349670769 C8.69272799,0.56442242 8.56779003,0.759959524 8.37181234,0.851927371 L7.68111477,1.17605595 C7.57877424,1.22408202 7.48514471,1.28851246 7.40400446,1.36674728 L6.47372446,2.2637163 C6.09798063,2.62600569 6.061685,3.20339765 6.37006745,3.60711485 L6.46397114,3.71385893 L9.48670914,6.70705465 C9.65376065,6.87247351 9.87321937,6.97591628 10.1082104,7 L10.1815394,7.00751774 C10.4187901,7.0318349 10.6401349,7.13703266 10.8077045,7.30511292 L13.7033584,10.2095925 C14.1006923,10.6081374 14.0986091,11.2495509 13.6986946,11.6455569 L12.6321888,12.7016394 C12.2613514,13.0688524 11.677829,13.0970996 11.2742708,12.7863809 L11.1726949,12.6969922 L8.27926978,9.7947551 C8.11557987,9.63056666 8.01302526,9.41621679 7.98839255,9.18679125 L7.97917758,9.10096438 C7.95430494,8.86930412 7.84999503,8.65308511 7.68363742,8.48835338 L4.12606258,4.96554795 C4.06415202,4.90424246 3.96377517,4.90424246 3.90186461,4.96554795 C3.87914409,4.98804642 3.86386397,5.01685038 3.85804919,5.04814268 L3.82514189,5.22523386 C3.81071936,5.3028489 3.7872373,5.37854142 3.75516817,5.45078844 L3.72215037,5.52517267 C3.67077371,5.6409167 3.59808664,5.74617864 3.50780378,5.83557914 L2.46229173,6.87087304 C2.06055124,7.26868717 1.40920122,7.26868717 1.00746073,6.87087304 L0.301305365,6.17161917 C-0.100435122,5.77380504 -0.100435122,5.12882088 0.301305365,4.73100675 L1.21557908,3.82566855 C1.32366461,3.71863937 1.45447852,3.63680667 1.59850945,3.58612042 L1.88464026,3.48542749 C1.85098794,3.32464172 1.89716992,3.15073913 2.02318622,3.02595444 L4.75449685,0.321337855 C4.85363745,0.223166187 4.97199884,0.146100045 5.10231158,0.0948726138 Z" id="Path"></path>
        </g>
    </g>
</svg>