<?xml version="1.0" encoding="UTF-8"?>
<svg width="16px" height="16px" viewBox="0 0 16 16" version="1.1" xmlns="http://www.w3.org/2000/svg" xmlns:xlink="http://www.w3.org/1999/xlink">
    <title>Artboard</title>
    <g id="Artboard" stroke="none" stroke-width="1" fill="none" fill-rule="evenodd">
        <g id="ink" transform="translate(4.250000, 0.250000)" fill="#FFFFFF">
            <path d="M5.52632812,12.60125 L6.62078125,12.60125 C5.69609375,14.578125 4.40296875,15.5665625 2.74148438,15.5665625 C2.0696875,15.5665625 1.56398438,15.4253125 1.22445313,15.1428906 C0.884921875,14.8604687 0.71515625,14.4404688 0.71515625,13.8828906 C0.71515625,13.5570313 0.856015625,12.985 1.1378125,12.1667188 L2.43804687,8.419375 C2.53921875,8.12976563 2.58976563,7.94148438 2.58976563,7.85453125 C2.58976563,7.76765625 2.56992187,7.70429688 2.53015625,7.66445313 C2.49046875,7.6246875 2.42726563,7.60476563 2.34054688,7.60476563 C1.97210937,7.60476563 1.53867187,8.07539063 1.04023438,9.01679688 L0,9.01679688 C0.931875,6.99648438 2.24664063,5.98632812 3.94429688,5.98632812 C4.54382813,5.98632812 5.00984375,6.13296875 5.34210938,6.42625 C5.674375,6.71953125 5.84054688,7.12320312 5.84054688,7.63734375 C5.84054688,8.01390625 5.6925,8.61125 5.39625,9.42953125 L4.13929688,12.861875 C3.95875,13.3471094 3.8684375,13.6511719 3.8684375,13.7742969 C3.8684375,13.8539844 3.891875,13.9155469 3.93882813,13.9589844 C3.98578125,14.0024219 4.05265625,14.0241406 4.13929688,14.0241406 C4.32710938,14.0241406 4.56734375,13.8611719 4.85992188,13.5353125 C5.1525,13.2094531 5.37460938,12.898125 5.52632812,12.60125 L5.52632812,12.60125 Z" id="Shape"></path>
            <path d="M5.47765625,0 C5.88101563,0 6.240625,0.166875 6.63109375,0.358671875 C7.10734375,0.59265625 7.5365625,0.780625 7.5365625,1.61195313 C7.5365625,2.52914063 6.5721875,3.80773438 5.76570313,3.80773438 C4.840625,3.80773438 3.88257813,2.98648438 3.88257813,1.65164063 C3.88257813,0.53375 4.62601563,0.009296875 5.47765625,0 L5.47765625,0 Z M5.7834375,0.293671875 C5.64046875,0.293671875 5.36992188,0.346015625 5.35320313,0.67875 C5.33640625,1.01148438 5.51242188,1.08304687 5.51234375,1.24390625 C5.5121875,1.4046875 5.42484375,1.52289062 5.49695313,1.57695312 C5.56898438,1.63101562 5.87382813,2.2190625 6.16835937,2.2190625 C6.46296875,2.2190625 6.60640625,2.46539062 6.84710937,2.46539062 C7.0878125,2.46539062 7.26625,1.86257812 7.26625,1.41195312 C7.26625,0.512421875 6.64632813,0.694140625 6.35648438,0.512421875 C6.06664063,0.330625 5.92640625,0.293671875 5.7834375,0.293671875 L5.7834375,0.293671875 Z M6.13320313,3.53742188 C6.37679688,3.53742188 6.63539063,3.26921875 6.63539063,3.18734375 C6.63539063,3.10554687 6.55476563,3.02679688 6.42054688,3.02679688 C6.1115625,3.02679688 5.85117188,3.21039063 5.85117188,3.3221875 C5.85117188,3.43398437 5.97609375,3.53742188 6.13320313,3.53742188 Z" id="Shape"></path>
        </g>
    </g>
</svg>